<?xml version="1.0" encoding="UTF-8"?><svg id="Calque_1" xmlns="http://www.w3.org/2000/svg" viewBox="0 0 560.09 242.48"><defs><style>.cls-1{fill:#003da8;stroke-width:0px;}</style></defs><path class="cls-1" d="M.09,142.82c8.8,2.66,16.7,7.32,24.93,11.24,2.1,1,2.29,3.13,2.74,5.05,1.6,6.95,3.07,13.93,4.76,20.85,1.52,6.19,4.23,7.86,10.5,6.82,17.4-2.91,34.8-5.78,52.18-8.8,2.64-.46,4.88-.14,7.19,1.06,3.96,2.06,7.98,4,12.47,6.23-1.71-5.05-5.85-5.99-10.25-7.58,2.38-2.07,4.94-1.77,7.11-2.52,12.52-4.34,23.26-1.4,34.8,5.04,30.21,16.85,61.21,32.29,91.9,48.29,6.02,3.14,12.01,6.31,18.45,9.7.54-4.47-2.26-7.74-2.18-13.07,5.39,6.47,9.9,11.87,14.4,17.28h-84c-11.12-6.78-23.45-11.02-35.15-16.57-8.6-4.08-17.39-7.77-26.09-11.64,12.39,7.88,25.11,15.06,37.74,22.4,2.95,1.72,6.46,2.73,8.5,5.81-55.4,0-110.79-.02-166.19.07-2.96,0-3.92-.46-3.9-3.73.16-31.97.09-63.95.09-95.93ZM178.14,214.17c.15-.29.31-.59.46-.88-7.53-4.15-15.21-8.05-22.52-12.54-4.79-2.94-9.24-2.44-14.92-.52,12.86,4.85,24.92,9.39,36.98,13.94Z"/><path class="cls-1" d="M560.09,119.92c-27.86-14.23-55.72-28.44-83.57-42.69-22.92-11.72-45.81-23.49-69.04-34.77l7.88,6.4c-.24.35-.47.69-.71,1.04-17.83-10.7-35.65-21.39-53.48-32.09.18-.38.35-.77.53-1.15,8.11,2.76,16.22,5.51,24.33,8.27.12-.22.23-.44.35-.66-13.18-7.54-26.36-15.08-39.99-22.88,2.8-1.85,5-1.23,7.07-1.23,62.14-.04,124.28.1,186.42-.17,9.42-.04,16.17,2.82,20.22,11.36v43.82c-14.11-7.15-28.81-4.96-44.98-2.94,4.67,2.26,8.04,3.97,11.46,5.54,11.16,5.14,21.96,11.05,33.52,15.33v46.81Z"/><path class="cls-1" d="M560.09,158.76c-4.99-1.88-7.83-6.5-12.04-9.37-.81-.55-1.44-1.66-2.51-1.36-1.44.4-1.1,1.84-1.25,2.94-.31,2.43.29,5.86-1.89,6.83-2.51,1.12-4.07-2.23-5.87-3.77-11.6-9.92-23.12-19.94-34.65-29.95-1.09-.95-2.54-1.65-2.9-4.41,18.89,8.35,37.24,16.47,56.45,24.97-1.7-4.39-5.32-6.15-6.22-10.26l10.87,7.45v16.93Z"/><path class="cls-1" d="M.09,75.1c11.26,4.95,14.29,9.49,13.31,20.84-4.65-3.46-8.98-6.67-13.31-9.88,0-3.65,0-7.3,0-10.95Z"/><path class="cls-1" d="M368.2,73.21c.56-4.7,1.22-10.12,1.85-15.55.3-2.56,1.69-3.37,4.15-2.78,7.44,1.79,14.89,3.53,22.33,5.3,1.93.46,3.18,1.66,3.91,3.5,2.76,6.93,5.55,13.85,8.33,20.78,1.18,2.94.43,4.12-2.86,3.21-11.54-3.18-23.1-6.32-34.65-9.45-2.23-.6-3.51-1.82-3.04-5Z"/><path class="cls-1" d="M321.68,1.62c12.96-3.42,23.34-.08,29.13,9.34-10.32-3.31-19.72-6.33-29.13-9.34Z"/></svg>