<?xml version="1.0" encoding="UTF-8"?><svg id="Calque_1" xmlns="http://www.w3.org/2000/svg" viewBox="0 0 60.05 39.98"><defs><style>.cls-1{fill:#c4c4c4;}.cls-1,.cls-2{stroke-width:0px;}.cls-2{fill:#f4f4f4;}.cls-3{opacity:.49;}</style></defs><rect class="cls-2" width="60.05" height="39.98"/><g class="cls-3"><path class="cls-1" d="M30.68,23.85h-2.46c0-.35,0-.57,0-.65,0-.8.13-1.45.4-1.97s.79-1.09,1.58-1.73,1.26-1.06,1.42-1.26c.24-.31.36-.66.36-1.04,0-.53-.21-.98-.63-1.35s-.99-.56-1.7-.56-1.26.2-1.73.59c-.46.39-.78.99-.95,1.79l-2.49-.31c.07-1.15.56-2.13,1.47-2.93s2.1-1.2,3.58-1.2c1.55,0,2.79.41,3.71,1.22s1.38,1.76,1.38,2.84c0,.6-.17,1.16-.51,1.7s-1.06,1.26-2.16,2.18c-.57.48-.93.86-1.06,1.15s-.2.81-.19,1.55ZM28.22,27.49v-2.71h2.71v2.71h-2.71Z"/></g></svg>